#!OML:ASF H:\Terrain\Walking\May29\JustinRory\rory.ASF
:FULLY-SPECIFIED
:DEGREES
1019
root 17.6893 10.0934 1.43185 -380.302 -76.2853 353.208
lowerback 34.7818 1.74157 -3.71119
upperback 16.0693 -0.713833 1.63313
thorax 0.0555094 -1.47407 3.87066
lowerneck -0.0689347 -16.3568 -12.7136
upperneck 14.802 -26.184 21.2036
head 9.26818 -12.3276 6.14667
rclavicle 2.72335e-014 -1.17283e-014
rhumerus -21.9705 19.5981 -88.2593
rradius 102.112
rwrist 1.52978
rhand -5.54144 24.3894
rfingers 7.12502
rthumb 20.2731 -4.57259
lclavicle 2.72335e-014 -1.17283e-014
lhumerus 0.969563 -23.6333 59.2645
lradius 89.2717
lwrist 21.3276
lhand 4.15012 25.6677
lfingers 7.12502
lthumb 29.559 -306.666
rfemur -64.9678 -5.63206 17.5146
rtibia 76.8749
rfoot 19.5402 -0.220196
rtoes -5.67908
lfemur -62.5349 11.945 -3.65808
ltibia 68.8429
lfoot 27.9464 -3.38903
ltoes 5.78136
1020
root 17.694 10.0854 1.4368 -380.169 -76.2423 352.978
lowerback 34.4917 1.69208 -3.58096
upperback 16.0927 -0.708877 1.77316
thorax 0.178557 -1.4696 3.94515
lowerneck -0.251081 -16.2749 -12.8032
upperneck 15.0089 -26.0707 21.0788
head 9.34242 -12.2594 6.1229
rclavicle 1.03865e-014 -1.49089e-015
rhumerus -21.9713 19.7911 -87.9699
rradius 101.753
rwrist 2.46924
rhand -7.4968 23.7255
rfingers 7.12502
rthumb 18.393 -5.42493
lclavicle 1.03865e-014 -1.49089e-015
lhumerus 1.9318 -22.4703 59.3311
lradius 89.0082
lwrist 21.2358
lhand 2.81655 25.1288
lfingers 7.12502
lthumb 28.2852 -306.987
rfemur -64.8809 -5.7227 17.569
rtibia 76.8386
rfoot 19.5013 0.440701
rtoes -8.33122
lfemur -62.5169 11.9548 -3.66636
ltibia 68.8414
lfoot 28.0046 -3.45785
ltoes 5.44987
1021
root 17.7056 10.0827 1.43744 -380.343 -76.2451 353.052
lowerback 34.2899 1.57543 -3.64204
upperback 15.9961 -0.846765 1.77727
thorax 0.155825 -1.53208 4.02314
lowerneck -0.221215 -16.0964 -12.5089
upperneck 15.2012 -25.7637 20.6131
head 9.22594 -12.1205 5.99729
rclavicle -2.60905e-014 2.64384e-014
rhumerus -22.1405 20.2421 -88.0444
rradius 101.518
rwrist 2.46268
rhand -7.80458 22.8861
rfingers 7.12502
rthumb 18.0969 -6.29201
lclavicle -2.60905e-014 2.64384e-014
lhumerus 2.07618 -21.1093 59.9058
lradius 88.9766
lwrist 20.766
lhand 1.24489 24.6421
lfingers 7.12502
lthumb 26.7822 -307.234
rfemur -64.7927 -5.774 17.5636
rtibia 76.8237
rfoot 19.572 0.423774
rtoes -8.21698
lfemur -62.5056 11.98 -3.71139
ltibia 68.8672
lfoot 28.039 -3.57397
ltoes 4.77677
1022
root 17.7159 10.0842 1.43483 -380.151 -76.1636 352.618
lowerback 34.1508 1.43641 -3.65324
upperback 15.954 -1.0087 1.80351
thorax 0.172704 -1.61142 4.10407
lowerneck -0.334553 -15.9535 -11.9758
upperneck 15.5816 -25.5058 19.9412
head 9.1477 -11.9847 5.74985
rclavicle 3.24516e-014 -2.45499e-014
rhumerus -22.3834 20.4563 -88.2829
rradius 101.271
rwrist 2.5071
rhand -7.60588 23.4606
rfingers 7.12502
rthumb 18.288 -5.6997
lclavicle 3.24516e-014 -2.45499e-014
lhumerus 2.27047 -19.6554 60.3693
lradius 89.1256
lwrist 20.7572
lhand 0.506455 24.4224
lfingers 7.12502
lthumb 26.0754 -307.347
rfemur -64.5042 -5.92176 17.614
rtibia 76.8173
rfoot 19.5651 0.255602
rtoes -7.20911
lfemur -62.3781 11.9661 -3.70117
ltibia 68.8978
lfoot 28.0949 -4.0833
ltoes 3.08632
1023
root 17.7192 10.0725 1.43603 -378.668 -76.163 350.956
lowerback 33.8717 1.27276 -3.10567
upperback 15.9416 -1.02216 1.92724
thorax 0.25057 -1.58632 3.946
lowerneck -0.368445 -15.8755 -12.1083
upperneck 15.8523 -25.4708 19.959
head 9.26178 -11.9606 5.77686
rclavicle -1.65488e-014 1.30204e-014
rhumerus -22.5456 20.2524 -88.2425
rradius 101.017
rwrist 2.21059
rhand -7.27068 23.829
rfingers 7.12502
rthumb 18.6105 -5.3008
lclavicle -1.65488e-014 1.30204e-014
lhumerus 2.84917 -18.4709 60.986
lradius 89.237
lwrist 21.1226
lhand -0.723733 23.9125
lfingers 7.12502
lthumb 24.897 -307.689
rfemur -64.3588 -6.01757 18.0048
rtibia 76.8332
rfoot 19.4999 0.41791
rtoes -7.6993
lfemur -62.3985 12.056 -3.34423
ltibia 68.9345
lfoot 28.3827 -4.19781
ltoes 3.46916
1024
root 17.7247 10.0614 1.43749 -379.35 -76.0878 351.689
lowerback 33.5629 1.25905 -3.00348
upperback 15.8113 -0.963136 1.93258
thorax 0.211978 -1.53066 3.8801
lowerneck -0.1631 -15.8203 -12.5685
upperneck 16.0061 -25.5152 20.2452
head 9.39504 -11.9992 5.94223
rclavicle -2.71838e-014 7.40473e-015
rhumerus -22.715 19.9459 -88.1302
rradius 100.725
rwrist 2.21011
rhand -6.87994 23.9681
rfingers 7.12502
rthumb 18.9863 -5.12524
lclavicle -2.71838e-014 7.40473e-015
lhumerus 3.521 -17.5565 61.6675
lradius 89.2863
lwrist 21.7716
lhand -2.34005 23.5179
lfingers 7.12502
lthumb 23.3472 -307.878
rfemur -64.4843 -6.07126 17.7905
rtibia 76.8667
rfoot 19.5209 0.483941
rtoes -7.91549
lfemur -62.4773 12.105 -3.57746
ltibia 68.9051
lfoot 28.5792 -3.7031
ltoes 5.63386
1025
root 17.7339 10.0637 1.43258 -382.73 -75.8329 355.022
lowerback 33.5913 1.46808 -3.96468
upperback 15.6403 -0.958442 1.96383
thorax 0.0298937 -1.56938 4.42465
lowerneck -0.0702029 -15.739 -12.8511
upperneck 16.2153 -25.3982 20.0456
head 9.4349 -11.9653 5.94487
rclavicle -4.08207e-014 1.96362e-014
rhumerus -22.8771 20.0282 -87.9362
rradius 100.301
rwrist 2.09112
rhand -6.2043 24.8942
rfingers 7.12502
rthumb 19.6359 -4.13416
lclavicle -4.08207e-014 1.96362e-014
lhumerus 3.92657 -16.2571 62.6407
lradius 89.3006
lwrist 22.8851
lhand -3.38038 23.3602
lfingers 7.12502
lthumb 22.3489 -307.912
rfemur -64.4081 -6.14054 16.8296
rtibia 76.8602
rfoot 19.557 0.627992
rtoes -7.51244
lfemur -62.1838 12.035 -4.5159
ltibia 68.7751
lfoot 28.389 -3.45256
ltoes 6.32337
1026
root 17.7437 10.0662 1.4257 -385.077 -75.6532 357.089
lowerback 33.8375 1.71391 -4.7942
upperback 15.5215 -0.896054 2.11339
thorax -0.178276 -1.58491 5.00755
lowerneck -0.135628 -15.6736 -12.6577
upperneck 16.3924 -25.2086 19.5075
head 9.3603 -11.8803 5.77241
rclavicle 3.39922e-014 -1.54058e-015
rhumerus -22.9319 20.0004 -87.4887
rradius 99.8403
rwrist 1.47605
rhand -5.09562 27.069
rfingers 7.12502
rthumb 20.7015 -1.84685
lclavicle 3.39922e-014 -1.54058e-015
lhumerus 4.38612 -14.9625 63.673
lradius 89.3975
lwrist 24.5588
lhand -4.97011 23.8537
lfingers 7.12502
lthumb 20.8221 -307.244
rfemur -64.0396 -6.09583 16.1637
rtibia 76.801
rfoot 19.6133 0.47101
rtoes -6.21834
lfemur -61.6951 12.0209 -5.09509
ltibia 68.6261
lfoot 28.3046 -3.60486
ltoes 6.01082
1027
root 17.7587 10.0782 1.41572 -386.365 -75.7182 357.753
lowerback 34.2711 1.94771 -5.07963
upperback 15.5293 -0.726334 2.24976
thorax -0.336406 -1.5302 5.25443
lowerneck -0.207576 -15.6408 -12.3208
upperneck 16.6278 -25.1049 19.0207
head 9.31408 -11.8247 5.58222
rclavicle 1.96548e-014 -1.53064e-014
rhumerus -22.962 19.9669 -87.2139
rradius 99.9849
rwrist 1.59775
rhand -3.92444 27.1252
rfingers 7.12502
rthumb 21.8265 -1.66389
lclavicle 1.96548e-014 -1.53064e-014
lhumerus 4.98503 -13.9749 64.5376
lradius 89.7534
lwrist 27.3705
lhand -7.2275 25.4713
lfingers 7.12502
lthumb 18.652 -305.403
rfemur -63.1924 -5.82009 15.9603
rtibia 76.6927
rfoot 19.5805 0.249024
rtoes -6.06492
lfemur -60.8481 12.126 -5.1226
ltibia 68.4987
lfoot 28.3547 -3.74543
ltoes 6.31511
1028
root 17.7701 10.0878 1.40756 -386.642 -75.9101 357.664
lowerback 34.3784 1.98878 -5.14285
upperback 15.4085 -0.68922 2.35185
thorax -0.509108 -1.50999 5.38783
lowerneck -0.0205968 -15.495 -12.5364
upperneck 17.02 -24.9418 18.7564
head 9.37462 -11.7742 5.57159
rclavicle 3.33461e-014 5.76476e-015
rhumerus -23.3498 20.3013 -87.392
rradius 99.8087
rwrist 1.73094
rhand -3.75498 25.8918
rfingers 7.12502
rthumb 21.9892 -2.87827
lclavicle 3.33461e-014 5.76476e-015
lhumerus 5.18765 -12.8435 65.4609
lradius 90.1862
lwrist 31.3201
lhand -9.44954 26.6565
lfingers 7.12502
lthumb 16.5137 -304.026
rfemur -62.7127 -5.53991 16.0453
rtibia 76.6183
rfoot 19.5524 -0.0332613
rtoes -5.47268
lfemur -60.4035 12.3686 -4.95359
ltibia 68.4651
lfoot 28.3704 -3.77539
ltoes 6.71155
1029
root 17.7713 10.0767 1.41487 -386.421 -75.9169 357.573
lowerback 33.9831 1.80243 -4.95232
upperback 15.1547 -0.796262 2.30283
thorax -0.63687 -1.51602 5.27083
lowerneck 0.267684 -15.3079 -12.8159
upperneck 17.3635 -24.7692 18.6788
head 9.43565 -11.7257 5.64218
rclavicle 1.4064e-014 8.94531e-015
rhumerus -23.9991 20.8064 -87.8452
rradius 99.8232
rwrist 1.91435
rhand -5.18346 23.0422
rfingers 7.12502
rthumb 20.6171 -5.88283
lclavicle 1.4064e-014 8.94531e-015
lhumerus 5.39268 -11.8386 66.2659
lradius 90.4991
lwrist 36.183
lhand -10.8927 26.5287
lfingers 7.12502
lthumb 15.1238 -304.044
rfemur -62.9805 -5.57181 16.0137
rtibia 76.6451
rfoot 19.6749 -0.555711
rtoes -2.89179
lfemur -60.6781 12.4374 -5.00153
ltibia 68.5259
lfoot 28.3695 -3.62629
ltoes 6.74266
1030
root 17.7737 10.0635 1.42933 -386.516 -76.0066 357.36
lowerback 34.0124 1.67957 -4.49911
upperback 15.1323 -0.81635 2.22267
thorax -0.676455 -1.49482 4.95308
lowerneck 0.299123 -15.234 -12.8397
upperneck 17.6067 -24.7173 18.6101
head 9.49813 -11.7024 5.63598
rclavicle 2.23633e-014 -3.32964e-014
rhumerus -24.1802 21.0893 -88.0438
rradius 99.7758
rwrist 1.9668
rhand -7.14573 20.5111
rfingers 7.12502
rthumb 18.7307 -8.60711
lclavicle 2.23633e-014 -3.32964e-014
lhumerus 6.1091 -10.9707 66.8615
lradius 90.8645
lwrist 42.0763
lhand -11.2125 26.7575
lfingers 7.12502
lthumb 14.8158 -303.792
rfemur -62.715 -5.54042 16.0237
rtibia 76.657
rfoot 19.7355 -0.512653
rtoes -2.85026
lfemur -60.3842 12.3929 -4.88464
ltibia 68.5916
lfoot 28.3286 -3.62457
ltoes 5.59376
1031
root 17.7766 10.0508 1.43249 -386.052 -76.0586 356.583
lowerback 33.9421 1.51111 -3.99704
upperback 15.2085 -0.884987 2.11152
thorax -0.569727 -1.50396 4.58858
lowerneck 0.266744 -15.2255 -12.5857
upperneck 17.7451 -24.7019 18.4153
head 9.4861 -11.6866 5.53833
rclavicle -1.38652e-014 2.18663e-015
rhumerus -24.0487 20.968 -88.1766
rradius 99.2185
rwrist 1.98109
rhand -7.88324 21.8355
rfingers 7.12502
rthumb 18.0212 -7.34963
lclavicle -1.38652e-014 2.18663e-015
lhumerus 7.04929 -10.4392 67.0354
lradius 91.2031
lwrist 48.4188
lhand -11.7832 27.3336
lfingers 7.12502
lthumb 14.2659 -303.176
rfemur -62.4113 -5.53788 16.2373
rtibia 76.6795
rfoot 19.7196 -0.129049
rtoes -4.78062
lfemur -60.1323 12.4309 -4.65392
ltibia 68.6363
lfoot 28.4516 -3.80309
ltoes 4.92176
1032
root 17.7806 10.042 1.42341 -385.305 -75.7973 355.819
lowerback 33.441 1.23412 -3.7401
upperback 15.2248 -1.11988 2.00966
thorax -0.356051 -1.59772 4.40952
lowerneck 0.464416 -15.1107 -12.2999
upperneck 17.7532 -24.5142 18.1893
head 9.34665 -11.6133 5.47904
rclavicle 9.14409e-015 -9.24349e-015
rhumerus -23.9934 20.7248 -88.3313
rradius 98.3996
rwrist 2.02405
rhand -6.81838 25.2134
rfingers 7.12502
rthumb 19.0455 -3.87412
lclavicle 9.14409e-015 -9.24349e-015
lhumerus 7.8135 -10.2383 66.9335
lradius 91.4394
lwrist 55.1006
lhand -11.9315 27.3413
lfingers 7.12502
lthumb 14.123 -303.159
rfemur -62.4245 -5.75869 16.3119
rtibia 76.7162
rfoot 19.7536 -0.160785
rtoes -4.93509
lfemur -60.3278 12.3224 -4.63885
ltibia 68.6492
lfoot 28.3553 -3.10714
ltoes 8.2993
